<svg xmlns="http://www.w3.org/2000/svg" viewBox="0 0 19 14" style="-moz-transform:scale(-1, 1); -webkit-transform:scale(-1, 1); -o-transform:scale(-1, 1); -ms-transform:scale(-1, 1); transform:scale(-1, 1);"><defs><style>.a{fill:#000;}</style></defs><path class="a" d="M13.584,14.013a1.728,1.728,0,0,0,0,2.475,1.8,1.8,0,0,0,2.519,0,1.728,1.728,0,0,0,0-2.475A1.8,1.8,0,0,0,13.584,14.013Zm1.679,1.65a.6.6,0,0,1-.84,0,.576.576,0,0,1,0-.825.6.6,0,0,1,.84,0A.576.576,0,0,1,15.264,15.662ZM2.9,14.013a1.728,1.728,0,0,0,0,2.475,1.8,1.8,0,0,0,2.519,0,1.728,1.728,0,0,0,0-2.475A1.8,1.8,0,0,0,2.9,14.013Zm1.679,1.65a.6.6,0,0,1-.84,0,.576.576,0,0,1,0-.825.6.6,0,0,1,.84,0A.576.576,0,0,1,4.576,15.662Zm11.455.171h1.188A1.766,1.766,0,0,0,19,14.083V9.417A2.943,2.943,0,0,0,16.031,6.5H13.063a.583.583,0,1,0,0,1.167h2.969a1.766,1.766,0,0,1,1.781,1.75v4.667a.589.589,0,0,1-.594.583H16.031a.583.583,0,1,0,0,1.167Zm-2.375-.583V4.75A1.766,1.766,0,0,0,11.875,3H1.781A1.766,1.766,0,0,0,0,4.75v9.333a1.766,1.766,0,0,0,1.781,1.75H2.969a.583.583,0,1,0,0-1.167H1.781a.589.589,0,0,1-.594-.583V4.75a.589.589,0,0,1,.594-.583H11.875a.589.589,0,0,1,.594.583v10.5a.594.594,0,0,0,1.188,0Zm0-.583H5.344a.583.583,0,1,0,0,1.167h8.313a.583.583,0,1,0,0-1.167ZM18.406,10H16.625a.589.589,0,0,1-.594-.583V7.083a.594.594,0,0,0-1.187,0V9.417a1.766,1.766,0,0,0,1.781,1.75h1.781a.583.583,0,1,0,0-1.167ZM.594,12.333H13.063a.583.583,0,1,0,0-1.167H.594a.583.583,0,1,0,0,1.167Zm3.563-.583V7.083a.594.594,0,0,0-1.187,0V11.75a.594.594,0,0,0,1.188,0Zm2.969,0V7.083a.594.594,0,0,0-1.187,0V11.75a.594.594,0,0,0,1.188,0Zm2.969,0V7.083a.594.594,0,0,0-1.187,0V11.75a.594.594,0,0,0,1.188,0Z" transform="translate(0 -3)"/></svg>